<svg width="17" height="16" viewBox="0 0 17 16" fill="none" xmlns="http://www.w3.org/2000/svg">
<path d="M13.8333 4.33268V6.82435C13.8333 6.82435 12.175 6.83268 12.1667 6.82435V4.33268H9.66667C9.66667 4.33268 9.675 2.67435 9.66667 2.66602H12.1667V0.166016H13.8333V2.66602H16.3333V4.33268H13.8333ZM11.3333 7.66602V5.16602H8.83333V2.66602H2.16667C1.25 2.66602 0.5 3.41602 0.5 4.33268V14.3327C0.5 15.2493 1.25 15.9993 2.16667 15.9993H12.1667C13.0833 15.9993 13.8333 15.2493 13.8333 14.3327V7.66602H11.3333ZM2.16667 14.3327L4.66667 10.9993L6.33333 13.4993L8.83333 10.166L12.1667 14.3327H2.16667Z" fill="#8C8C8C" fill-opacity="0.85098"/>
</svg>
