<svg width="20" height="14" viewBox="0 0 20 14" fill="none" xmlns="http://www.w3.org/2000/svg">
<path d="M19.0917 13.6664C18.8622 13.6601 18.6349 13.6208 18.4167 13.5498C17.5833 13.2997 16.8583 12.7831 16.2 12.7831H3.7C3.05 12.7831 2.36667 13.3414 1.59167 13.5664C0.816667 13.7914 0.45 13.6664 0.191667 13.3747C-0.216667 12.8581 0.15 12.0414 0.466667 11.4664C0.629193 11.1284 0.713582 10.7581 0.713582 10.3831C0.713582 10.008 0.629193 9.63777 0.466667 9.29975C0.162307 8.54763 0.00393152 7.74444 0 6.93308C0.000763176 6.17075 0.156707 5.41654 0.458333 4.71642C0.621883 4.39798 0.71133 4.04669 0.719989 3.68881C0.728647 3.33093 0.656292 2.97573 0.508333 2.64975C0.175 2.05808 -0.225 1.16642 0.183333 0.67475C0.45 0.333083 0.916667 0.27475 1.58333 0.458083C2.25782 0.77128 2.9649 1.00884 3.69167 1.16642H16.1917C16.9615 1.01559 17.7111 0.775059 18.425 0.44975C19.1083 0.24975 19.5917 0.32475 19.8583 0.658083C20.275 1.17475 19.8583 2.02475 19.55 2.61642C19.3917 2.94084 19.3094 3.29709 19.3094 3.65808C19.3094 4.01908 19.3917 4.37533 19.55 4.69975C19.851 5.40564 20.0041 6.16571 20 6.93308C20.0021 7.74073 19.8494 8.5413 19.55 9.29142C19.3835 9.63274 19.297 10.0075 19.297 10.3872C19.297 10.767 19.3835 11.1418 19.55 11.4831C19.8583 12.0581 20.225 12.8664 19.8083 13.3747C19.7177 13.4731 19.6065 13.5503 19.4826 13.6007C19.3587 13.6511 19.2252 13.6736 19.0917 13.6664ZM0.833333 1.20808C0.893397 1.57793 1.03269 1.93042 1.24167 2.24142C1.45581 2.67853 1.56714 3.15883 1.56714 3.64558C1.56714 4.13233 1.45581 4.61264 1.24167 5.04975C0.977165 5.64266 0.838142 6.28387 0.833333 6.93308C0.830823 7.63446 0.960883 8.33 1.21667 8.98308C1.4338 9.43414 1.54656 9.92831 1.54656 10.4289C1.54656 10.9295 1.4338 11.4237 1.21667 11.8748C0.833333 12.5831 0.833333 12.8331 0.833333 12.8331H0.916667C1.0667 12.8291 1.21541 12.8039 1.35833 12.7581C2.19167 12.5247 2.96667 11.9247 3.68333 11.9247H16.1833C16.9 11.9247 17.7167 12.4497 18.6833 12.7581C18.8592 12.8332 19.053 12.8564 19.2417 12.8247C19.2027 12.4807 19.0797 12.1516 18.8833 11.8664C18.6544 11.4193 18.5295 10.9262 18.518 10.424C18.5065 9.92187 18.6086 9.42358 18.8167 8.96642C19.059 8.31637 19.1777 7.62675 19.1667 6.93308C19.1671 6.28504 19.0338 5.64388 18.775 5.04975C18.5588 4.61027 18.4464 4.12703 18.4464 3.63725C18.4464 3.14747 18.5588 2.66423 18.775 2.22475C19.1917 1.47475 19.1583 1.22475 19.15 1.18308C19.1417 1.14142 19.1667 1.16642 19.1667 1.16642C19.0055 1.17443 18.8459 1.20242 18.6917 1.24975C17.9081 1.59721 17.0855 1.84902 16.2417 1.99975H3.74167C2.94087 1.83821 2.16091 1.58661 1.41667 1.24975C1.23157 1.1743 1.02727 1.15971 0.833333 1.20808Z" fill="white"/>
</svg>
