<svg width="20" height="14" viewBox="0 0 20 14" fill="none" xmlns="http://www.w3.org/2000/svg">
<path d="M20 10.334V8.02565C20.0023 7.76025 19.9008 7.50447 19.717 7.31295C19.5333 7.12142 19.2819 7.00934 19.0167 7.00065H7.5V5.33398C7.5 5.11297 7.4122 4.90101 7.25592 4.74473C7.09964 4.58845 6.88768 4.50065 6.66667 4.50065H2.5C2.27899 4.50065 2.06702 4.58845 1.91074 4.74473C1.75446 4.90101 1.66667 5.11297 1.66667 5.33398V7.00065H0.833333V0.333984H0V13.6673H0.833333V12.0007H19.1667V13.6673H20V11.1673H0.833333V7.87565H19.0167C19.0564 7.87565 19.0946 7.89145 19.1227 7.91959C19.1509 7.94772 19.1667 7.98587 19.1667 8.02565V10.334H20ZM2.5 5.33398H6.66667V7.00065H2.5V5.33398Z" fill="white"/>
</svg>
