<svg width="20" height="14" viewBox="0 0 20 14" fill="none" xmlns="http://www.w3.org/2000/svg">
<path d="M1.66667 4.50065V2.00065C1.66667 1.77964 1.75446 1.56768 1.91074 1.4114C2.06702 1.25512 2.27899 1.16732 2.5 1.16732C2.72101 1.16732 2.93298 1.25512 3.08926 1.4114C3.24554 1.56768 3.33333 1.77964 3.33333 2.00065V2.83398H4.16667V2.00065C4.16667 1.55862 3.99107 1.1347 3.67851 0.82214C3.36595 0.509579 2.94203 0.333984 2.5 0.333984C2.05797 0.333984 1.63405 0.509579 1.32149 0.82214C1.00893 1.1347 0.833333 1.55862 0.833333 2.00065V4.50065H0V5.33398H20V4.50065H1.66667ZM17.9417 8.95065C17.8588 9.5655 17.5554 10.1293 17.0878 10.5371C16.6202 10.9449 16.0204 11.1688 15.4 11.1673H4.56667C3.95445 11.1554 3.36651 10.9258 2.90834 10.5195C2.45017 10.1133 2.15176 9.55704 2.06667 8.95065L1.66667 6.16732H0.833333L1.2 9.05898C1.28631 9.65603 1.52916 10.2196 1.90387 10.6924C2.27857 11.1651 2.77177 11.5303 3.33333 11.7507V13.6673H4.16667V12.0007C4.30962 12.0271 4.45462 12.0411 4.6 12.0423H15.4333C15.5676 12.0398 15.7014 12.0259 15.8333 12.0007V13.6673H16.6667V11.7507C17.2255 11.5296 17.7153 11.1638 18.0859 10.6907C18.4564 10.2177 18.6943 9.65445 18.775 9.05898L19.1667 6.16732H18.3333L17.9417 8.95065Z" fill="white"/>
</svg>
